<?xml version="1.0" encoding="UTF-8"?>
<svg width="63mm" height="63mm" version="1.1" viewBox="0 0 63 63" xmlns="http://www.w3.org/2000/svg">
 <path class="st4" d="m62.236 24.571c-1.3587-0.39941-2.5307-1.0917-3.6497-2.0237-1.8115 1.6509-4.1825 1.7574-6.58 0.4793-2.0246-1.0917-3.25-3.0355-3.6497-5.1924-1.8914 0.85208-4.2091 0.9586-5.9141-0.15977-1.9713-1.2781-2.5042-3.3551-2.078-5.3788-2.3975 0.23966-4.8751-0.45267-6.58-2.3166-2.584-2.8491-1.7316-6.6303-0.55943-9.9322-10.23-0.55918-20.539 3.8876-27.066 12.755-10.336 14.006-7.3526 33.71 6.6333 44.042 14.012 10.332 33.726 7.3493 44.062-6.6303 5.6477-7.6688 7.2993-17.041 5.3812-25.642zm-21.205 14.619c-3.8628 5.2457-11.269 6.364-16.49 2.4764-5.248-3.8611-6.3669-11.264-2.4775-16.483 3.8628-5.2457 11.269-6.3641 16.49-2.4764 5.2214 3.8611 6.3403 11.236 2.4775 16.483z" style="fill:#8b5e3c;stroke-width:.26634"/>
 <path class="st2" d="m56.668 40.09c0.666-1.8107 5.1415-5.9646 4.8218-8.4677-0.31968-2.503-2.8504-2.3964-3.7829-4.8462-0.47952-1.2249 0.05326-2.4231 0.39959-3.8078-1.7316 1.2516-3.9161 1.2781-6.1006 0.0799-2.0246-1.0917-3.25-3.0355-3.6497-5.1924-1.8914 0.85209-4.2091 0.9586-5.9141-0.15977-1.9713-1.2781-2.5042-3.3551-2.078-5.3788-2.3975 0.23966-4.8751-0.45267-6.58-2.3166-1.8115-1.9704-1.9446-4.4202-1.4652-6.8167-1.332 1.145-2.1578 3.0622-4.3423 3.4084-3.2767 0.50593-3.5964-3.3551-6.9264-2.0237-3.33 1.3048-3.33 4.7663-5.5677 7.3493-2.2377 2.5828-8.8444-1.6776-8.7112 5.0326 0.13321 6.7102 1.0656 5.7249 0.42623 8.3878-0.63935 2.6362-5.328 1.9971-5.5943 5.0326-0.29304 3.0355 3.1968 4.5267 4.0226 6.4439 0.82583 1.9172-1.4652 6.2842-0.1332 8.3878 1.332 2.1036 4.3955 1.0385 5.9407 2.6095 1.5451 1.5444 1.2787 5.6984 4.0759 7.8552 2.8238 2.1568 4.5022-0.93198 7.3526-0.15977 2.8504 0.7722 1.0656 5.1924 4.9816 5.3256 3.9161 0.13314 6.2603-3.1421 8.4715-3.4616 2.2111-0.31953 6.1538 1.9971 9.7768-0.05324 3.6497-2.0503 1.3587-4.3936 2.7972-6.4971 1.4385-2.1036 4.6886-0.58581 6.9264-2.5829 2.2377-1.9971 0.18647-6.3374 0.85246-8.148zm-15.638-0.90534c-3.8628 5.2457-11.269 6.364-16.49 2.4764-5.248-3.8611-6.3669-11.264-2.4775-16.483 3.8628-5.2457 11.269-6.3641 16.49-2.4764 5.2214 3.8611 6.3403 11.236 2.4775 16.483z" style="fill:#c0e5e0;stroke-width:.26634"/>
 <path class="st1" d="m49.64 23.907c-1.252-0.63906-2.5307-1.2781-3.7829-1.9172-0.93239-0.4793-1.6251 0.98522-0.69264 1.4645 1.252 0.63907 2.5307 1.2781 3.7829 1.9172 0.95903 0.4793 1.6251-0.98522 0.69263-1.4645z" style="fill:#f2655a;stroke-width:.26634"/>
 <path class="st1" d="m25.556 9.4751c-1.3054 0.55918-2.5841 1.145-3.8894 1.7041-0.95903 0.42605-0.26639 1.8905 0.69264 1.4645 1.3054-0.55918 2.5841-1.145 3.8894-1.7041 0.95903-0.42605 0.26639-1.8905-0.69264-1.4645z" style="fill:#f2655a;stroke-width:.26634"/>
 <path class="st1" d="m13.836 21.804c-1.0922 0.90534-2.1845 1.784-3.3033 2.6894-0.79919 0.6657 0.2664 1.8905 1.0656 1.2249 1.0922-0.90534 2.1845-1.784 3.3033-2.6894 0.79919-0.6657-0.26641-1.8905-1.0656-1.2249z" style="fill:#f2655a;stroke-width:.26634"/>
 <path class="st1" d="m12.638 41.66c0.23975 1.3846 0.45287 2.7959 0.69263 4.1806 0.15984 1.0385 1.7582 0.71895 1.5984-0.31953-0.23975-1.3846-0.45287-2.7959-0.69263-4.1806-0.18648-1.0385-1.7582-0.71894-1.5984 0.31953z" style="fill:#f2655a;stroke-width:.26634"/>
 <path class="st3" d="m23.049 45.494c0.31968 1.3846 0.66599 2.7426 0.98566 4.1273 0.23976 1.0118 1.8115 0.58582 1.5717-0.42604-0.31968-1.3846-0.666-2.7426-0.98567-4.1273-0.2664-1.0118-1.8115-0.58581-1.5717 0.42604z" style="fill:#fff;stroke-width:.26634"/>
 <path class="st3" d="m32.745 13.944c0.39959 1.358 0.82584 2.7161 1.2254 4.074 0.29304 0.98523 1.8381 0.4793 1.5451-0.50592-0.3996-1.358-0.82584-2.7161-1.2254-4.074-0.31968-1.0118-1.8648-0.4793-1.5451 0.50593z" style="fill:#fff;stroke-width:.26634"/>
 <path class="st3" d="m12.819 34.957c-1.332 0.50593-2.6374 1.0385-3.9693 1.5444-0.95903 0.37278-0.31968 1.864 0.63935 1.4912 1.332-0.50593 2.6374-1.0385 3.9693-1.5444 0.95903-0.39942 0.31968-1.8905-0.63935-1.4912z" style="fill:#fff;stroke-width:.26634"/>
 <path class="st3" d="m54.513 40.331c-1.332-0.4793-2.6639-0.9586-3.996-1.4379-0.98567-0.34616-1.4652 1.1982-0.50616 1.5444 1.332 0.4793 2.6639 0.9586 3.996 1.4379 0.98567 0.34616 1.4919-1.1717 0.50616-1.5444z" style="fill:#fff;stroke-width:.26634"/>
 <path class="st3" d="m39.199 51.221c-1.2787 0.63907-2.5308 1.2781-3.8095 1.9172-0.93239 0.4793-0.15984 1.8906 0.77256 1.4113 1.2787-0.63906 2.5307-1.2781 3.8094-1.9172 0.93239-0.45268 0.15984-1.864-0.77255-1.4113z" style="fill:#fff;stroke-width:.26634"/>
 <path class="st6" d="m45.512 32.18c0.85248 1.145 1.6783 2.29 2.5307 3.4084 0.61271 0.82546 1.8914-0.15977 1.2787-1.0118-0.85247-1.145-1.6783-2.29-2.5307-3.4084-0.63936-0.82546-1.8914 0.1864-1.2787 1.0118z" style="fill:#f69d98;stroke-width:.26634"/>
 <path class="st6" d="m14.098 28.567c0.82582 1.145 1.6783 2.29 2.5042 3.435 0.61271 0.85208 1.8914-0.15977 1.2787-0.98523-0.82584-1.145-1.6783-2.29-2.5042-3.435-0.61272-0.85209-1.8915 0.13314-1.2787 0.98522z" style="fill:#f69d98;stroke-width:.26634"/>
 <path class="st6" d="m21.398 17.114c1.1188 0.87872 2.2111 1.7574 3.33 2.6362 0.82584 0.63907 1.7849-0.63907 0.95903-1.3048-1.1188-0.87872-2.2111-1.7574-3.33-2.6362-0.79919-0.63907-1.7849 0.6657-0.95903 1.3048z" style="fill:#f69d98;stroke-width:.26634"/>
 <path class="st6" d="m17.692 46.481c-0.74591 1.1982-1.4652 2.4231-2.2111 3.6213-0.5328 0.87872 0.85248 1.6776 1.4119 0.79883 0.74591-1.1982 1.4652-2.4231 2.2111-3.6213 0.5328-0.90534-0.87911-1.7041-1.4119-0.79883z" style="fill:#f69d98;stroke-width:.26634"/>
 <path class="st5" d="m50.808 30.559c1.3587-0.37279 2.7439-0.74557 4.1025-1.1183 1.0123-0.26627 0.5328-1.8107-0.47952-1.5444-1.3587 0.37278-2.7439 0.74557-4.1025 1.1183-0.98567 0.26627-0.5328 1.8107 0.47952 1.5444z" style="fill:#fbd015;stroke-width:.26634"/>
 <path class="st5" d="m16.313 38.278c0.58607 1.2781 1.1722 2.5829 1.7582 3.8611 0.42623 0.9586 1.8914 0.23966 1.4652-0.71894-0.58608-1.2781-1.1722-2.5829-1.7582-3.8611-0.45288-0.9586-1.9181-0.23966-1.4652 0.71894z" style="fill:#fbd015;stroke-width:.26634"/>
 <path class="st5" d="m28.889 52.026c0 1.4113 0.02668 2.8226 0.02668 4.2604 0 1.0385 1.6251 0.98523 1.6251-0.05324 0-1.4113-0.02668-2.8226-0.02668-4.2604-0.02668-1.0651-1.6516-0.98523-1.6251 0.05324z" style="fill:#fbd015;stroke-width:.26634"/>
 <path class="st5" d="m14.551 14.718c0.58607 1.2781 1.1722 2.5829 1.7582 3.8611 0.42623 0.9586 1.8914 0.23964 1.4652-0.71895-0.58608-1.2781-1.1722-2.5828-1.7582-3.861-0.42624-0.93198-1.8915-0.23966-1.4652 0.71894z" style="fill:#fbd015;stroke-width:.26634"/>
 <path class="st3" d="m20.038 21.532c-1.1188 0.85209-2.2644 1.7041-3.3832 2.5563-0.82584 0.63907 0.18647 1.8906 1.0123 1.2516 1.1188-0.85209 2.2644-1.7041 3.3832-2.5563 0.82584-0.61245-0.18648-1.8906-1.0123-1.2516z" style="fill:#fff;stroke-width:.26634"/>
 <path class="st5" d="m29.553 7.7139c-0.42623 1.358-0.85248 2.7161-1.2787 4.0474-0.31968 0.98522 1.252 1.4379 1.5717 0.42604 0.42623-1.358 0.85248-2.7161 1.2787-4.0474 0.31968-0.98523-1.252-1.4113-1.5717-0.42604z" style="fill:#fbd015;stroke-width:.26634"/>
 <path class="st5" d="m7.7073 28.667c0.47952 1.3314 0.95903 2.6627 1.4119 3.9942 0.34632 0.98522 1.8648 0.39941 1.5184-0.58582-0.47952-1.3314-0.95903-2.6627-1.4119-3.9942-0.34632-0.98522-1.8648-0.39941-1.5184 0.58582z" style="fill:#fbd015;stroke-width:.26634"/>
 <path class="st5" d="m47.344 48.403c-1.0922 0.90534-2.1845 1.8107-3.25 2.7161-0.79919 0.66569 0.2664 1.864 1.0656 1.1982 1.0922-0.90535 2.1845-1.8107 3.25-2.7161 0.82583-0.6657-0.26639-1.864-1.0656-1.1982z" style="fill:#fbd015;stroke-width:.26634"/>
 <path class="st6" d="m40.477 46.833c-1.4119-0.10651-2.8238-0.21302-4.2357-0.2929-1.039-0.0799-1.0922 1.5444-0.05326 1.6243 1.4119 0.10651 2.8238 0.21302 4.2357 0.2929 1.039 0.05324 1.0922-1.571 0.05326-1.6243z" style="fill:#f69d98;stroke-width:.26634"/>
 <path class="st1" d="m44.767 40.301c-0.50616 1.3314-1.0123 2.6627-1.4919 3.9675-0.37296 0.98523 1.1722 1.4912 1.5184 0.53256 0.50615-1.3314 1.0123-2.6627 1.4919-3.9675 0.37296-0.98522-1.1455-1.5178-1.5184-0.53255z" style="fill:#f2655a;stroke-width:.26634"/>
</svg>
